<svg xmlns="http://www.w3.org/2000/svg" width="64" height="72" fill="none" viewBox="0 0 64 72"><path fill="#FFD666" d="M64 18.271V43.694C64 53.7844 55.5565 61.9651 45.1421 61.9651H43.2347L33.4941 71.3963C33.1127 71.7659 32.5849 72 32 72C31.4596 72 30.97 71.809 30.5949 71.4887L30.4296 71.3285L30.4232 71.3224L20.7653 61.9651H18.8516C8.44347 61.9651 0 53.7844 0 43.694V18.271C0 8.1807 8.44347 0 18.8579 0H45.1421C55.5565 0 64 8.1807 64 18.271Z"/><path fill="#fff" d="M14.2697 35.219C12.4132 35.219 11.355 37.2687 12.4322 38.7487C16.6205 44.5139 23.5462 48.2728 31.3717 48.2728C39.1972 48.2728 46.1166 44.5077 50.3049 38.7487C51.3821 37.2687 50.324 35.219 48.4674 35.219H14.2697Z"/><path fill="#fff" d="M24.1432 25.4937H12.9405V20.0196C12.9405 16.9976 15.4497 14.5454 18.5419 14.5454C21.634 14.5454 24.1432 16.9976 24.1432 20.0196V25.4937Z"/><path fill="#fff" d="M47.803 25.4937H36.6002V20.0196C36.6002 16.9976 39.1094 14.5454 42.2016 14.5454C45.2938 14.5454 47.803 16.9976 47.803 20.0196V25.4937Z"/></svg>